<?xml version="1.0" encoding="UTF-8" standalone="no"?>
<!DOCTYPE svg PUBLIC "-//W3C//DTD SVG 1.1//EN" "http://www.w3.org/Graphics/SVG/1.1/DTD/svg11.dtd">
<svg width="100%" height="100%" viewBox="0 0 512 512" version="1.1" xmlns="http://www.w3.org/2000/svg" xmlns:xlink="http://www.w3.org/1999/xlink" xml:space="preserve" xmlns:serif="http://www.serif.com/" style="fill-rule:evenodd;clip-rule:evenodd;stroke-linejoin:round;stroke-miterlimit:2;">
    <g transform="matrix(1,0,0,1,2.84217e-14,15.6073)">
        <path d="M292.04,272.732C292.04,272.732 263.985,325.625 263.985,371.295C263.985,416.966 275.987,430.155 275.987,430.155C275.987,430.155 265.971,434.256 256,434.256C246.029,434.256 236.013,430.155 236.013,430.155C236.013,430.155 247.971,416.829 247.971,371.295C247.971,325.761 219.96,272.732 219.96,272.732C219.96,272.732 231.538,280.69 256,280.69C280.462,280.69 292.04,272.732 292.04,272.732ZM272.337,405.938C299.757,408.651 320,418.028 320,429.166C320,442.422 291.323,453.184 256,453.184C220.677,453.184 192,442.422 192,429.166C192,418.036 212.214,408.665 239.603,405.944C238.166,411.756 236.61,416.407 235.143,420.061C228.322,422.264 224,425.527 224,429.166C224,435.794 238.339,441.175 256,441.175C273.661,441.175 288,435.794 288,429.166C288,425.517 283.656,422.247 276.805,420.044C275.334,416.394 273.776,411.748 272.337,405.938ZM256,27.602C326.645,27.602 384,41.94 384,59.602C384,77.263 326.645,99.295 256,99.295C185.355,99.295 128,77.263 128,59.602C128,41.94 185.355,27.602 256,27.602ZM256,35.602C203.016,35.602 160,46.356 160,59.602C160,72.847 203.016,83.602 256,83.602C308.984,83.602 352,72.847 352,59.602C352,46.356 308.984,35.602 256,35.602ZM256,272.147C135.42,272.147 128,75.584 128,75.584C128,75.584 131.67,115.29 256,115.29C380.33,115.29 384,75.584 384,75.584C384,75.584 376.58,272.147 256,272.147Z" style="fill:rgb(253,150,150);"/>
    </g>
</svg>
